<?xml version="1.0" encoding="UTF-8" standalone="no"?>
<!DOCTYPE svg  PUBLIC '-//W3C//DTD SVG 1.1//EN'  'http://www.w3.org/Graphics/SVG/1.1/DTD/svg11.dtd'>
<svg version="1.1" xmlns="http://www.w3.org/2000/svg">
<defs>
<font id="CafeDeco" horiz-adv-x="770">
<font-face bbox="-25 -142 904 888" units-per-em="1000" underline-thickness="50" cap-height="702" unicode-range="U+0020-20AC" descent="-200" font-weight="400" x-height="702" panose-1="2 0 5 8 0 0 0 2 0 4" font-family="Cafe Deco" ascent="800" underline-position="-150"/>
<missing-glyph/>
<glyph horiz-adv-x="288" glyph-name="space" unicode=" "/>
<glyph horiz-adv-x="176" d="M45 34q0 18 12.5 30.5t30.5 12.5t30.5 -12.5t12.5 -30.5t-12.5 -30.5t-30.5 -12.5t-30.5 12.5t-12.5 30.5zM120 702v-570h-63v570h63z" glyph-name="exclam" unicode="!"/>
<glyph horiz-adv-x="210" d="M77 702v-197h-52v197h52zM185 702v-197h-52v197h52z" glyph-name="quotedbl" unicode='&quot;'/>
<glyph horiz-adv-x="681" d="M172 114h-56l60 182h-161l14 47h162l45 135h-175l13 47h177l59 177h55l-58 -177h132l59 177h55l-58 -177h156l-14 -47h-157l-45 -135h169l-14 -47h-170l-60 -182h-56l61 182h-132zM424 477h-132l-44 -135h131z" glyph-name="numbersign" unicode="#"/>
<glyph horiz-adv-x="472" d="M247 -74v77q-54 17 -72 69l54 30q5 -20 20.5 -33t36.5 -13q24 0 40.5 17.5t16.5 42.5q0 41 -45 59q-15 5 -51 16t-57 19q-70 26 -117.5 89t-47.5 146q0 99 63 171t159 85v65h57v-63q98 -7 158 -69l-40 -49q-47 53 -118 59v-406q18 -6 27 -10q76 -33 76 -110 q0 -45 -29.5 -78.5t-73.5 -39.5v-74h-57zM200 273q19 -8 47 -18v387q-70 -13 -114 -67.5t-44 -129.5q0 -61 32.5 -106.5t78.5 -65.5z" glyph-name="dollar" unicode="$"/>
<glyph horiz-adv-x="924" d="M504 192q0 85 57.5 143t142.5 58t142.5 -58t57.5 -143t-57.5 -143t-142.5 -58t-142.5 58t-57.5 143zM557 192q0 -62 43 -105.5t104 -43.5t104 43.5t43 105.5t-43 105.5t-104 43.5t-104 -43.5t-43 -105.5zM607 702l-224 -702h-58l224 702h58zM30 512q0 85 57.5 143 t142.5 58t142.5 -58t57.5 -143t-57.5 -143t-142.5 -58t-142.5 58t-57.5 143zM83 512q0 -62 43 -105.5t104 -43.5t104 43.5t43 105.5t-43 105.5t-104 43.5t-104 -43.5t-43 -105.5z" glyph-name="percent" unicode="%"/>
<glyph horiz-adv-x="610" d="M310 484l-10 -52q-82 -2 -135.5 -56.5t-53.5 -131.5q0 -81 54 -136t134 -55q60 0 108.5 35.5t69.5 90.5q-23 10 -39 10q-36 0 -65 -29l-24 51q33 36 89 36q25 0 58.5 -12t42.5 -12q26 0 48 22l33 -49q-36 -32 -83 -32q-23 -76 -90.5 -124.5t-147.5 -48.5 q-107 0 -180.5 72.5t-73.5 180.5q0 75 44 137.5t116 88.5q-21 17 -35 44.5t-14 55.5q0 59 42 100t101 41q51 0 83 -26l-36 -53q-21 16 -47 16q-32 0 -55 -23t-23 -55q0 -35 26 -60.5t63 -25.5z" glyph-name="ampersand" unicode="&amp;"/>
<glyph horiz-adv-x="102" d="M77 702v-197h-52v197h52z" glyph-name="quotesingle" unicode="&apos;"/>
<glyph horiz-adv-x="256" d="M251 769v-74q-80 -59 -123.5 -147.5t-43.5 -190.5q0 -219 167 -346v-79q-231 152 -231 419q0 136 57 238t174 180z" glyph-name="parenleft" unicode="("/>
<glyph horiz-adv-x="256" d="M5 695v76q231 -154 231 -420q0 -265 -231 -417v77q167 127 167 346q0 102 -43.5 190.5t-123.5 147.5z" glyph-name="parenright" unicode=")"/>
<glyph horiz-adv-x="339" d="M146 702h47v-109l92 54l24 -40l-99 -54l97 -52l-22 -38l-92 54v-109h-47v109l-92 -55l-23 39l97 56l-98 52l23 38l93 -53v108z" glyph-name="asterisk" unicode="*"/>
<glyph horiz-adv-x="470" d="M265 397v-169h165v-59h-165v-169h-60v169h-165v59h165v169h60z" glyph-name="plus" unicode="+"/>
<glyph horiz-adv-x="145" d="M39 -98l23 92q-16 4 -26.5 17t-10.5 30q0 21 14.5 35.5t35.5 14.5t35.5 -14.5t14.5 -35.5q0 -15 -14 -45l-44 -94h-28z" glyph-name="comma" unicode=","/>
<glyph horiz-adv-x="298" d="M65 165l-30 51q30 27 73 27q20 0 42 -9.5t32 -9.5q28 0 46 18l35 -52q-26 -26 -68 -26q-19 0 -41 10t-36 10q-31 0 -53 -19z" glyph-name="hyphen" unicode="-"/>
<glyph horiz-adv-x="150" d="M25 41q0 21 14.5 35.5t35.5 14.5t35.5 -14.5t14.5 -35.5t-14.5 -35.5t-35.5 -14.5t-35.5 14.5t-14.5 35.5z" glyph-name="period" unicode="."/>
<glyph horiz-adv-x="295" d="M285 702l-224 -702h-51l224 702h51z" glyph-name="slash" unicode="/"/>
<glyph d="M25 351q0 152 103.5 256t256.5 104t256.5 -104t103.5 -256t-103.5 -256t-256.5 -104q-152 0 -256 104t-104 256zM90 351q0 -124 86.5 -212t208.5 -88t208.5 88t86.5 212t-86.5 212t-208.5 88t-208.5 -88t-86.5 -212z" glyph-name="zero" unicode="0"/>
<glyph horiz-adv-x="262" d="M149 0v568l-118 -130l-41 40l222 237v-715h-63z" glyph-name="one" unicode="1"/>
<glyph horiz-adv-x="500" d="M59 0l281 307q56 62 56 137q0 87 -55 146t-139 59q-82 0 -142 -59l-40 46q65 75 182 75q112 0 187.5 -75t75.5 -187q0 -100 -74 -179l-198 -214h197v-56h-331z" glyph-name="two" unicode="2"/>
<glyph horiz-adv-x="581" d="M419 702l6 -8l-124 -148q111 -5 183 -82t72 -193q0 -117 -81 -198.5t-199 -81.5q-89 0 -158.5 48.5t-102.5 137.5l60 32q22 -72 75.5 -113.5t125.5 -41.5q93 0 154 63.5t61 153.5q0 94 -62.5 155t-152.5 61q-51 0 -95 -22l-9 14l134 164h-194v59h307z" glyph-name="three" unicode="3"/>
<glyph horiz-adv-x="544" d="M435 0h-63v169h-357l-5 10l425 535v-488h99v-57h-99v-169zM372 226v316l-251 -316h251z" glyph-name="four" unicode="4"/>
<glyph horiz-adv-x="586" d="M158 447l-7 3v252h261v-56h-199v-115q36 16 79 16q116 0 192.5 -78t76.5 -198q0 -117 -81 -198.5t-199 -81.5q-89 0 -158.5 48.5t-102.5 137.5l60 31q22 -72 75 -113t126 -41q93 0 154 63.5t61 153.5q0 94 -62.5 155t-152.5 61q-71 0 -123 -40z" glyph-name="five" unicode="5"/>
<glyph horiz-adv-x="605" d="M326 714l42 -50q-93 -62 -157 -136q42 19 94 19q119 0 199.5 -79t80.5 -197q0 -116 -81 -198t-199 -82q-121 0 -200.5 81.5t-79.5 198.5q0 97 75 210q85 129 226 233zM90 271q0 -89 63 -154.5t152 -65.5q90 0 152.5 64.5t62.5 155.5q0 89 -63 152.5t-152 63.5t-152 -63.5 t-63 -152.5z" glyph-name="six" unicode="6"/>
<glyph horiz-adv-x="478" d="M20 640v62h471l2 -7q-134 -132 -238 -331.5t-118 -374.5l-68 15q21 150 93.5 317t201.5 319h-344z" glyph-name="seven" unicode="7"/>
<glyph horiz-adv-x="557" d="M122 554q0 65 46 111t111 46t110.5 -46t45.5 -111q0 -52 -30 -93q30 -15 53 -38q74 -74 74 -179q0 -103 -74 -179q-74 -74 -179 -74q-106 0 -180 74q-74 76 -74 179q0 105 74 179q23 23 53 38q-30 39 -30 93zM90 244q0 -78 55.5 -133t133.5 -55q77 0 132.5 55t55.5 133 q0 57 -31.5 103.5t-81.5 68.5q-34 -18 -75 -18q-43 0 -77 19q-50 -23 -81 -69.5t-31 -103.5zM187 554q0 -41 26 -66.5t66 -25.5t65.5 25.5t25.5 66.5q0 38 -26.5 65t-64.5 27t-65 -27t-27 -65z" glyph-name="eight" unicode="8"/>
<glyph horiz-adv-x="606" d="M270 -11l-42 50q106 67 179 156q-47 -27 -109 -27q-122 0 -197.5 76t-75.5 194q0 115 79.5 194t193.5 79q115 0 194 -80t79 -195v-1q0 -67 -30.5 -138.5t-78 -130t-97 -103.5t-95.5 -74zM506 438q0 88 -59.5 150.5t-148.5 62.5q-90 0 -149 -62.5t-59 -150.5 q0 -89 57.5 -149t150.5 -60q92 0 150 61t58 148z" glyph-name="nine" unicode="9"/>
<glyph horiz-adv-x="150" d="M25 41q0 21 14.5 35.5t35.5 14.5t35.5 -14.5t14.5 -35.5t-14.5 -35.5t-35.5 -14.5t-35.5 14.5t-14.5 35.5zM25 354q0 21 14.5 35.5t35.5 14.5t35.5 -14.5t14.5 -35.5t-14.5 -35.5t-35.5 -14.5t-35.5 14.5t-14.5 35.5z" glyph-name="colon" unicode=":"/>
<glyph horiz-adv-x="150" d="M39 -98l23 92q-16 4 -26.5 17t-10.5 30q0 21 14.5 35.5t35.5 14.5t35.5 -14.5t14.5 -35.5q0 -15 -14 -45l-44 -94h-28zM25 354q0 21 14.5 35.5t35.5 14.5t35.5 -14.5t14.5 -35.5t-14.5 -35.5t-35.5 -14.5t-35.5 14.5t-14.5 35.5z" glyph-name="semicolon" unicode=";"/>
<glyph horiz-adv-x="421" d="M406 58v-66l-391 178v57l391 177v-65l-324 -139z" glyph-name="less" unicode="&lt;"/>
<glyph horiz-adv-x="464" d="M42 469h390v-59h-390v59zM42 340h390v-59h-390v59z" glyph-name="equal" unicode="="/>
<glyph horiz-adv-x="421" d="M15 -8v66l324 142l-324 139v65l391 -177v-57z" glyph-name="greater" unicode="&gt;"/>
<glyph horiz-adv-x="416" d="M60 598l-40 50q51 63 154 63q93 0 155 -63.5t62 -154.5q0 -65 -39 -119t-101 -77q-13 -5 -43 -14.5t-45 -15.5q-33 -12 -33 -44q0 -18 11.5 -30.5t28.5 -12.5q23 0 37 22l46 -38q-25 -43 -82 -43q-43 0 -73.5 30.5t-30.5 73.5q0 63 60 93q19 9 57.5 20.5t54.5 18.5 q36 16 61.5 50.5t25.5 85.5q0 66 -43 112t-109 46q-78 0 -114 -53zM131 34q0 18 12.5 30.5t30.5 12.5t30.5 -12.5t12.5 -30.5t-12.5 -30.5t-30.5 -12.5t-30.5 12.5t-12.5 30.5z" glyph-name="question" unicode="?"/>
<glyph horiz-adv-x="734" d="M229 288q0 -45 24 -73t60 -28q62 0 109.5 76t47.5 148q0 37 -24 67t-54 30q-67 0 -115 -72.5t-48 -147.5zM501 480l23 62h56l-89 -278q-11 -35 -11 -52q0 -28 23 -28q54 0 101 74t47 150q0 112 -78 180.5t-189 68.5q-129 0 -215 -91t-86 -220q0 -126 88.5 -214.5 t215.5 -88.5q72 0 139 32.5t109 89.5l37 -29q-48 -68 -124 -106.5t-161 -38.5q-152 0 -257 105.5t-105 256.5q0 147 105.5 251.5t251.5 104.5q137 0 232 -85t95 -213q0 -112 -73 -194t-150 -82q-26 0 -43.5 16.5t-19.5 46.5h-2q-61 -63 -123 -63q-60 0 -97 42.5t-37 104.5 q0 106 65.5 192t164.5 86q75 0 107 -80z" glyph-name="at" unicode="@"/>
<glyph horiz-adv-x="657" d="M5 0l321 721l326 -721h-73l-82 183q-47 -35 -99 -35q-38 0 -88 24.5t-74 24.5q-33 0 -60.5 -13t-38.5 -38l-64 -146h-68zM325 573l-144 -328q24 12 59 12q33 0 83 -25t75 -25q39 0 74 34z" glyph-name="A" unicode="A"/>
<glyph horiz-adv-x="304" d="M50 -10v724q99 -20 164.5 -99.5t65.5 -183.5q0 -58 -24 -112t-63 -89q42 -5 69 -29t27 -62q0 -40 -38.5 -73t-91 -51.5t-109.5 -24.5zM217 431q0 60 -28.5 111t-75.5 82v-392q47 30 75.5 84.5t28.5 114.5zM167 183q-30 0 -54 -12v-111q47 11 79 32.5t32 51.5 q0 19 -16.5 29t-40.5 10z" glyph-name="B" unicode="B"/>
<glyph horiz-adv-x="645" d="M587 130l38 -49q-98 -90 -240 -90q-152 0 -256 104t-104 256t103.5 256t256.5 104q140 0 223 -75l-38 -53q-68 68 -185 68q-122 0 -208.5 -88t-86.5 -212t86.5 -212t208.5 -88q121 0 202 79z" glyph-name="C" unicode="C"/>
<glyph horiz-adv-x="345" d="M320 352q0 -127 -76 -227t-194 -136v725q119 -36 194.5 -135.5t75.5 -226.5zM255 352q0 82 -38.5 153.5t-103.5 114.5v-537q65 43 103.5 115t38.5 154z" glyph-name="D" unicode="D"/>
<glyph horiz-adv-x="332" d="M269 0h-219v702h217v-56h-154v-419q25 20 61 20q25 0 51.5 -12t35.5 -12q28 0 49 21l32 -47q-33 -33 -81 -33q-22 0 -48.5 12.5t-39.5 12.5q-38 0 -60 -28v-105h156v-56z" glyph-name="E" unicode="E"/>
<glyph horiz-adv-x="314" d="M113 0h-63v702h217v-56h-154v-419q23 20 57 20q23 0 49 -12.5t35 -12.5q25 0 44 19l31 -44q-31 -33 -76 -33q-21 0 -47 12.5t-38 12.5q-35 0 -55 -28v-161z" glyph-name="F" unicode="F"/>
<glyph horiz-adv-x="734" d="M469 169v57h250q-35 -112 -126.5 -173.5t-207.5 -61.5q-152 0 -256 104t-104 256t103.5 256t256.5 104q129 0 223 -75l-36 -54q-77 69 -187 69q-122 0 -208.5 -88t-86.5 -212t86.5 -212t208.5 -88q79 0 141 33t96 86z" glyph-name="G" unicode="G"/>
<glyph horiz-adv-x="343" d="M50 702h63v-476h117v476h63v-702h-63v169h-117v-169h-63v702z" glyph-name="H" unicode="H"/>
<glyph horiz-adv-x="163" d="M113 702v-581v-121h-63v121v581h63z" glyph-name="I" unicode="I"/>
<glyph horiz-adv-x="220" d="M39 -10l-19 60q42 18 67.5 57t25.5 86v509h62v-509q0 -68 -37.5 -123t-98.5 -80z" glyph-name="J" unicode="J"/>
<glyph horiz-adv-x="325" d="M246 702h64l-140 -491q68 -37 88 -125q12 -57 49 -66l-10 -64q-43 6 -65 34t-36 82q-9 35 -31.5 65t-52.5 36v-173h-62v702h62v-468l4 -1z" glyph-name="K" unicode="K"/>
<glyph horiz-adv-x="265" d="M113 702v-646h137v-56h-200v702h63z" glyph-name="L" unicode="L"/>
<glyph horiz-adv-x="363" d="M181 448l-69 90v-538h-62v715l132 -172l131 172v-715h-63v538z" glyph-name="M" unicode="M"/>
<glyph horiz-adv-x="326" d="M214 0v449l-102 110v-559h-62v715l164 -176v163h62v-702h-62z" glyph-name="N" unicode="N"/>
<glyph d="M25 351q0 152 103.5 256t256.5 104t256.5 -104t103.5 -256t-103.5 -256t-256.5 -104q-152 0 -256 104t-104 256zM90 351q0 -124 86.5 -212t208.5 -88t208.5 88t86.5 212t-86.5 212t-208.5 88t-208.5 -88t-86.5 -212z" glyph-name="O" unicode="O"/>
<glyph horiz-adv-x="300" d="M113 0h-63v713q101 -18 168 -97.5t67 -183.5q0 -87 -47.5 -158t-124.5 -105v-169zM113 624v-385q49 31 78 82t29 111t-29 111t-78 81z" glyph-name="P" unicode="P"/>
<glyph d="M25 351q0 152 103.5 256t256.5 104t256.5 -104t103.5 -256q0 -89 -37.5 -164.5t-103.5 -124.5q37 -54 91 -61l-15 -63q-81 15 -129 92q-76 -39 -166 -39q-152 0 -256 104t-104 256zM385 168v61q6 1 17 1q105 0 171 -110q107 91 107 231q0 124 -86.5 212t-208.5 88 t-208.5 -88t-86.5 -212t86.5 -212t208.5 -88q74 0 137 34q-47 83 -126 83h-11z" glyph-name="Q" unicode="Q"/>
<glyph horiz-adv-x="315" d="M113 0h-63v713q101 -20 167 -98.5t66 -182.5q0 -70 -31 -129t-85 -97q67 -41 84 -120q12 -57 49 -66l-10 -64q-43 6 -65 34t-36 82q-8 33 -28.5 61.5t-47.5 37.5v-171zM218 432q0 59 -28.5 109.5t-76.5 81.5v-387q48 29 76.5 81t28.5 115z" glyph-name="R" unicode="R"/>
<glyph horiz-adv-x="480" d="M470 640l-40 -50q-48 61 -142 61q-85 0 -141.5 -59t-56.5 -145q0 -62 33 -108.5t80 -67.5q20 -9 68 -23.5t66 -22.5q34 -14 55.5 -43.5t21.5 -68.5q0 -51 -36 -86.5t-87 -35.5q-40 0 -70.5 20t-42.5 55l55 31q5 -21 21 -34t37 -13q25 0 41.5 18t16.5 43q0 42 -46 60 q-17 7 -53.5 18t-56.5 18q-72 27 -120 91t-48 149q0 110 76.5 187t186.5 77q119 0 182 -71z" glyph-name="S" unicode="S"/>
<glyph horiz-adv-x="263" d="M248 702v-57h-85v-645h-63v645h-85v57h233z" glyph-name="T" unicode="T"/>
<glyph horiz-adv-x="323" d="M278 702v-586q0 -54 -32 -89.5t-84 -35.5q-54 0 -85.5 34t-31.5 91v586h62v-592q0 -29 15 -45t40 -16q24 0 39 15.5t15 43.5v594h62z" glyph-name="U" unicode="U"/>
<glyph horiz-adv-x="593" d="M588 702l-294 -721l-65 163l-224 558h71l184 -464l37 -95l223 559h68z" glyph-name="V" unicode="V"/>
<glyph horiz-adv-x="750" d="M745 702l-294 -721l-78 196l-79 -196l-289 721h71l221 -558l44 110l-179 448h69l144 -364l147 364h66l-181 -443l46 -115l224 558h68z" glyph-name="W" unicode="W"/>
<glyph horiz-adv-x="295" d="M285 0h-66l-70 248l-64 -248h-65l98 348l-91 354h66l60 -249l64 249h63l-97 -354z" glyph-name="X" unicode="X"/>
<glyph horiz-adv-x="501" d="M423 702h68l-282 -702h-65l77 189l-211 513h70l175 -432z" glyph-name="Y" unicode="Y"/>
<glyph horiz-adv-x="313" d="M298 702l-197 -646h183v-56h-264l197 646h-155v56h236z" glyph-name="Z" unicode="Z"/>
<glyph horiz-adv-x="192" d="M50 -66v833h167v-55h-104v-723h104v-55h-167z" glyph-name="bracketleft" unicode="["/>
<glyph horiz-adv-x="295" d="M234 0l-224 702h51l224 -702h-51z" glyph-name="backslash" unicode="\"/>
<glyph horiz-adv-x="192" d="M142 767v-833h-167v55h104v723h-104v55h167z" glyph-name="bracketright" unicode="]"/>
<glyph horiz-adv-x="324" d="M57 402h-52l137 300h42l135 -300h-55l-102 239z" glyph-name="asciicircum" unicode="^"/>
<glyph horiz-adv-x="391" d="M-10 -87h411v-39h-411v39z" glyph-name="underscore" unicode="_"/>
<glyph horiz-adv-x="322" d="M109 888l69 -129l-28 -21l-92 113z" glyph-name="grave" unicode="`"/>
<glyph horiz-adv-x="657" d="M5 0l321 721l326 -721h-73l-82 183q-47 -35 -99 -35q-38 0 -88 24.5t-74 24.5q-33 0 -60.5 -13t-38.5 -38l-64 -146h-68zM325 573l-144 -328q24 12 59 12q33 0 83 -25t75 -25q39 0 74 34z" glyph-name="a" unicode="a"/>
<glyph horiz-adv-x="304" d="M50 -10v724q99 -20 164.5 -99.5t65.5 -183.5q0 -58 -24 -112t-63 -89q42 -5 69 -29t27 -62q0 -40 -38.5 -73t-91 -51.5t-109.5 -24.5zM217 431q0 60 -28.5 111t-75.5 82v-392q47 30 75.5 84.5t28.5 114.5zM167 183q-30 0 -54 -12v-111q47 11 79 32.5t32 51.5 q0 19 -16.5 29t-40.5 10z" glyph-name="b" unicode="b"/>
<glyph horiz-adv-x="645" d="M587 130l38 -49q-98 -90 -240 -90q-152 0 -256 104t-104 256t103.5 256t256.5 104q140 0 223 -75l-38 -53q-68 68 -185 68q-122 0 -208.5 -88t-86.5 -212t86.5 -212t208.5 -88q121 0 202 79z" glyph-name="c" unicode="c"/>
<glyph horiz-adv-x="345" d="M320 352q0 -127 -76 -227t-194 -136v725q119 -36 194.5 -135.5t75.5 -226.5zM255 352q0 82 -38.5 153.5t-103.5 114.5v-537q65 43 103.5 115t38.5 154z" glyph-name="d" unicode="d"/>
<glyph horiz-adv-x="332" d="M269 0h-219v702h217v-56h-154v-419q25 20 61 20q25 0 51.5 -12t35.5 -12q28 0 49 21l32 -47q-33 -33 -81 -33q-22 0 -48.5 12.5t-39.5 12.5q-38 0 -60 -28v-105h156v-56z" glyph-name="e" unicode="e"/>
<glyph horiz-adv-x="314" d="M113 0h-63v702h217v-56h-154v-419q23 20 57 20q23 0 49 -12.5t35 -12.5q25 0 44 19l31 -44q-31 -33 -76 -33q-21 0 -47 12.5t-38 12.5q-35 0 -55 -28v-161z" glyph-name="f" unicode="f"/>
<glyph horiz-adv-x="734" d="M469 169v57h250q-35 -112 -126.5 -173.5t-207.5 -61.5q-152 0 -256 104t-104 256t103.5 256t256.5 104q129 0 223 -75l-36 -54q-77 69 -187 69q-122 0 -208.5 -88t-86.5 -212t86.5 -212t208.5 -88q79 0 141 33t96 86z" glyph-name="g" unicode="g"/>
<glyph horiz-adv-x="323" d="M41 702h63v-476h117v476h63v-702h-63v169h-117v-169h-63v702z" glyph-name="h" unicode="h"/>
<glyph horiz-adv-x="163" d="M113 702v-702h-63v702h63z" glyph-name="i" unicode="i"/>
<glyph horiz-adv-x="220" d="M39 -10l-19 60q42 18 67.5 57t25.5 86v509h62v-509q0 -68 -37.5 -123t-98.5 -80z" glyph-name="j" unicode="j"/>
<glyph horiz-adv-x="325" d="M246 702h64l-140 -491q68 -37 88 -125q12 -57 49 -66l-10 -64q-43 6 -65 34t-36 82q-9 35 -31.5 65t-52.5 36v-173h-62v702h62v-468l4 -1z" glyph-name="k" unicode="k"/>
<glyph horiz-adv-x="265" d="M113 702v-646h137v-56h-200v702h63z" glyph-name="l" unicode="l"/>
<glyph horiz-adv-x="363" d="M181 448l-69 90v-538h-62v715l132 -172l131 172v-715h-63v538z" glyph-name="m" unicode="m"/>
<glyph horiz-adv-x="326" d="M214 0v449l-102 110v-559h-62v715l164 -176v163h62v-702h-62z" glyph-name="n" unicode="n"/>
<glyph d="M25 351q0 152 103.5 256t256.5 104t256.5 -104t103.5 -256t-103.5 -256t-256.5 -104q-152 0 -256 104t-104 256zM90 351q0 -124 86.5 -212t208.5 -88t208.5 88t86.5 212t-86.5 212t-208.5 88t-208.5 -88t-86.5 -212z" glyph-name="o" unicode="o"/>
<glyph horiz-adv-x="300" d="M113 0h-63v713q101 -18 168 -97.5t67 -183.5q0 -87 -47.5 -158t-124.5 -105v-169zM220 432q0 60 -29 111t-78 81v-385q49 31 78 82t29 111z" glyph-name="p" unicode="p"/>
<glyph d="M25 351q0 152 103.5 256t256.5 104t256.5 -104t103.5 -256q0 -89 -37.5 -164.5t-103.5 -124.5q37 -54 91 -61l-15 -63q-81 15 -129 92q-76 -39 -166 -39q-152 0 -256 104t-104 256zM385 168v61q6 1 17 1q105 0 171 -110q107 91 107 231q0 124 -86.5 212t-208.5 88 t-208.5 -88t-86.5 -212t86.5 -212t208.5 -88q74 0 137 34q-47 83 -126 83h-11z" glyph-name="q" unicode="q"/>
<glyph horiz-adv-x="315" d="M113 0h-63v713q101 -20 167 -98.5t66 -182.5q0 -70 -31 -129t-85 -97q67 -41 84 -120q12 -57 49 -66l-10 -64q-43 6 -65 34t-36 82q-8 33 -28.5 61.5t-47.5 37.5v-171zM218 432q0 59 -28.5 109.5t-76.5 81.5v-387q48 29 76.5 81t28.5 115z" glyph-name="r" unicode="r"/>
<glyph horiz-adv-x="480" d="M470 640l-40 -50q-48 61 -142 61q-85 0 -141.5 -59t-56.5 -145q0 -62 33 -108.5t80 -67.5q20 -9 68 -23.5t66 -22.5q34 -14 55.5 -43.5t21.5 -68.5q0 -51 -36 -86.5t-87 -35.5q-40 0 -70.5 20t-42.5 55l55 31q5 -21 21 -34t37 -13q25 0 41.5 18t16.5 43q0 42 -46 60 q-17 7 -53.5 18t-56.5 18q-72 27 -120 91t-48 149q0 110 76.5 187t186.5 77q119 0 182 -71z" glyph-name="s" unicode="s"/>
<glyph horiz-adv-x="263" d="M248 702v-57h-85v-645h-63v645h-85v57h233z" glyph-name="t" unicode="t"/>
<glyph horiz-adv-x="323" d="M278 702v-586q0 -54 -32 -89.5t-84 -35.5q-54 0 -85.5 34t-31.5 91v586h62v-592q0 -29 15 -45t40 -16q24 0 39 15.5t15 43.5v594h62z" glyph-name="u" unicode="u"/>
<glyph horiz-adv-x="593" d="M588 702l-294 -721l-65 163l-224 558h71l184 -464l37 -95l223 559h68z" glyph-name="v" unicode="v"/>
<glyph horiz-adv-x="750" d="M745 702l-294 -721l-78 196l-79 -196l-289 721h71l221 -558l44 110l-179 448h69l144 -364l147 364h66l-181 -443l46 -115l224 558h68z" glyph-name="w" unicode="w"/>
<glyph horiz-adv-x="295" d="M285 0h-66l-70 248l-64 -248h-65l98 348l-91 354h66l60 -249l64 249h63l-97 -354z" glyph-name="x" unicode="x"/>
<glyph horiz-adv-x="501" d="M423 702h68l-282 -702h-65l77 189l-211 513h70l175 -432z" glyph-name="y" unicode="y"/>
<glyph horiz-adv-x="313" d="M298 702l-197 -646h183v-56h-264l197 646h-155v56h236z" glyph-name="z" unicode="z"/>
<glyph horiz-adv-x="235" d="M260 770v-52q-63 0 -83.5 -24.5t-20.5 -92.5v-93q0 -73 -15.5 -107.5t-66.5 -49.5q52 -16 67 -49t15 -107v-95q0 -68 20.5 -92.5t83.5 -24.5v-52h-18q-82 0 -113.5 36.5t-31.5 130.5v102q0 69 -23.5 98t-78.5 29v46q54 0 78 29.5t24 98.5v102q0 93 31.5 130t113.5 37h18z " glyph-name="braceleft" unicode="{"/>
<glyph horiz-adv-x="145" d="M95 769v-837h-45v837h45z" glyph-name="bar" unicode="|"/>
<glyph horiz-adv-x="235" d="M-25 718v52h18q82 0 113.5 -37t31.5 -130v-102q0 -69 24 -98.5t78 -29.5v-46q-55 0 -78.5 -29t-23.5 -98v-102q0 -94 -31.5 -130.5t-113.5 -36.5h-18v52q63 0 83.5 24.5t20.5 92.5v95q0 74 15 107t67 49q-51 15 -66.5 49.5t-15.5 107.5v93q0 68 -20.5 92.5t-83.5 24.5z " glyph-name="braceright" unicode="}"/>
<glyph horiz-adv-x="494" d="M421 254l33 -34q-45 -77 -112 -77q-36 0 -92.5 30t-100.5 30q-47 0 -74 -60l-35 32q40 78 114 78q38 0 101.5 -30t87.5 -30q45 0 78 61z" glyph-name="asciitilde" unicode="~"/>
<glyph horiz-adv-x="573" d="M1 256l18 51h55q-2 28 -2 44q0 152 103.5 256t256.5 104q59 0 116 -19l-21 -60q-48 19 -95 19q-122 0 -208.5 -88t-86.5 -212q0 -23 3 -44h287l-18 -51h-257q5 -16 14 -36h230l-18 -51h-181q41 -55 102.5 -86.5t132.5 -31.5q68 0 118 25l24 -55q-63 -30 -142 -30 q-101 0 -183.5 48t-129.5 130h-118l18 51h76q-7 20 -11 36h-83z" glyph-name="currency" unicode="¤"/>
<glyph horiz-adv-x="145" d="M95 769v-328h-45v328h45zM95 260v-328h-45v328h45z" glyph-name="brokenbar" unicode="¦"/>
<glyph horiz-adv-x="365" d="M303 284q0 -39 -30 -69q77 -61 77 -151q0 -81 -57 -136.5t-135 -55.5q-92 0 -137 57l37 46q35 -47 100 -47q57 0 94.5 39.5t37.5 96.5q0 37 -21 70.5t-54 47.5q-15 6 -48 16.5t-47 16.5q-58 23 -58 84q0 43 30 68q-26 21 -40 40q-37 49 -37 111q0 81 56 137t136 56 q87 0 137 -57l-37 -46q-37 47 -100 47q-57 0 -94.5 -39t-37.5 -98q0 -43 22.5 -74t52.5 -44q13 -5 38.5 -12.5t42.5 -14t35 -17.5t27.5 -29t9.5 -43zM215 317q-57 20 -61 20q-13 0 -22.5 -11t-9.5 -25q0 -25 27 -35q1 -1 28.5 -10.5t31.5 -9.5q14 0 24 10.5t10 25.5 q0 26 -28 35z" glyph-name="section" unicode="§"/>
<glyph horiz-adv-x="772" d="M516 236l37 -45q-27 -31 -69.5 -51t-85.5 -20q-97 0 -162.5 65.5t-65.5 161.5t66 162.5t162 66.5q93 0 148 -64l-38 -49q-44 51 -110 51q-68 0 -116 -48.5t-48 -118.5q0 -69 48 -118t116 -49q70 0 118 56zM387 709q148 0 254 -104.5t106 -253.5q0 -150 -106 -255 t-254 -105q-149 0 -255.5 105t-106.5 255q0 149 106.5 253.5t255.5 104.5zM689 351q0 130 -86.5 218t-215.5 88q-130 0 -217 -88t-87 -218q0 -132 87 -220t217 -88q129 0 215.5 88t86.5 220z" glyph-name="copyright" unicode="©"/>
<glyph horiz-adv-x="269" d="M65 197l75 -116l-41 -27l-94 143l94 143l41 -27zM179 197l75 -116l-40 -27l-94 143l94 143l40 -27z" glyph-name="guillemotleft" unicode="«"/>
<glyph horiz-adv-x="435" d="M10 228h390v-228h-60v169h-330v59z" glyph-name="logicalnot" unicode="¬"/>
<glyph horiz-adv-x="559" d="M280 201q-107 0 -181 72.5t-74 183.5q0 105 75 179.5t180 74.5q104 0 179 -74.5t75 -179.5q0 -106 -75 -181t-179 -75zM279 242h2q89 1 149 61.5t60 153.5q0 90 -60.5 151.5t-149.5 61.5q-90 0 -150.5 -61.5t-60.5 -151.5q0 -91 61 -153t149 -62zM230 305h-54v325 q102 -2 159.5 -33.5t57.5 -91.5q0 -39 -27.5 -68t-71.5 -36q34 -7 65 -44q16 -20 45 -20l-12 -50q-23 0 -40.5 7.5t-25.5 15.5t-22 25q-32 39 -74 39v-69zM335 500q0 35 -31.5 56t-73.5 22v-157q44 5 74.5 26t30.5 53z" glyph-name="registered" unicode="®"/>
<glyph horiz-adv-x="297" d="M149 711q55 0 94 -39.5t39 -94.5t-39 -94t-95 -39t-94.5 38.5t-38.5 94.5t39 95t95 39zM243 577q0 38 -28 66t-66 28q-39 0 -66.5 -27.5t-27.5 -66.5t28 -66.5t66 -27.5q39 0 66.5 28t27.5 66z" glyph-name="degree" unicode="°"/>
<glyph horiz-adv-x="470" d="M40 59h390v-59h-390v59zM265 397v-124h165v-59h-165v-124h-60v124h-165v59h165v124h60z" glyph-name="plusminus" unicode="±"/>
<glyph horiz-adv-x="329" d="M50 -142v645h62v-393q0 -29 15 -45t40 -16q24 0 39 15.5t15 43.5v395h62v-367q0 -62 41 -98l-40 -47q-17 16 -33 42q-31 -41 -80 -41q-36 0 -63 21v-155h-58z" glyph-name="mu" unicode="µ"/>
<glyph horiz-adv-x="383" d="M168 114v292q-59 0 -93.5 41t-34.5 101q0 67 37 110.5t106 43.5h180v-48h-32v-540h-50v540h-63v-540h-50z" glyph-name="paragraph" unicode="¶"/>
<glyph horiz-adv-x="140" d="M21 348q0 21 14.5 35.5t35.5 14.5t35.5 -14.5t14.5 -35.5t-14.5 -35.5t-35.5 -14.5t-35.5 14.5t-14.5 35.5z" glyph-name="periodcentered" unicode="·"/>
<glyph horiz-adv-x="269" d="M15 81l75 116l-75 116l40 27l94 -143l-94 -143zM129 81l75 116l-75 116l41 27l94 -143l-94 -143z" glyph-name="guillemotright" unicode="»"/>
<glyph horiz-adv-x="653" d="M40 256l18 51h55q-2 28 -2 44q0 152 103.5 256t256.5 104q59 0 116 -19l-21 -60q-48 19 -95 19q-122 0 -208.5 -88t-86.5 -212q0 -23 3 -44h287l-18 -51h-257q5 -16 14 -36h230l-18 -51h-181q41 -55 102.5 -86.5t132.5 -31.5q68 0 118 25l24 -55q-63 -30 -142 -30 q-101 0 -183.5 48t-129.5 130h-118l18 51h76q-7 20 -11 36h-83z" glyph-name="Euro" unicode="€"/>
</font>
</defs>
</svg>
